#!OML:ASF G:\ViconDB\ViconDB\414\test\team2\shane.ASF
:FULLY-SPECIFIED
:DEGREES
283
root 4.54162 16.0528 10.7342 -9.98491 5.87373 -10.3658
lowerback 5.5542 -2.5526 3.53178
upperback 5.04561 -3.35588 6.58023
thorax 2.32203 -1.69928 4.97135
lowerneck -17.5482 -2.51311 -6.43021
upperneck 14.5041 -2.89204 6.08349
head 7.52954 -1.16124 2.72673
rclavicle -1.25234e-014 1.27222e-014
rhumerus -29.578 9.6932 -90.7098
rradius 40.7688
rwrist 29.8738
rhand -33.7586 -17.062
rfingers 7.12502
rthumb -6.9465 -46.9281
lclavicle -1.25234e-014 1.27222e-014
lhumerus -33.6867 -24.6307 101.553
lradius 25.2208
lwrist -10.7945
lhand -39.6416 8.21776
lfingers 7.12502
lthumb -12.6223 37.8164
rfemur -5.60148 -18.0326 30.2218
rtibia 45.7891
rfoot -29.5686 -5.53291
rtoes -6.26515
lfemur -3.93895 5.71715 3.18718
ltibia 74.9457
lfoot -18.6444 -9.20055
ltoes -9.27923
284
root 4.53153 16.0932 10.8795 -10.2022 5.82777 -10.2199
lowerback 5.76731 -2.13798 3.68052
upperback 5.07654 -2.77328 6.20221
thorax 2.16895 -1.3929 4.47592
lowerneck -17.5571 -2.97781 -6.53962
upperneck 14.7894 -3.60289 6.57151
head 7.68514 -1.45855 2.82551
rclavicle 3.10601e-014 -5.64548e-014
rhumerus -28.893 10.6634 -91.1494
rradius 40.5498
rwrist 29.6324
rhand -34.1298 -17.1963
rfingers 7.12502
rthumb -7.30486 -47.0502
lclavicle 3.10601e-014 -5.64548e-014
lhumerus -34.246 -24.4834 101.498
lradius 24.724
lwrist -11.2443
lhand -39.9463 8.81363
lfingers 7.12502
lthumb -12.916 38.3939
rfemur -4.14784 -18.1051 29.8462
rtibia 44.5842
rfoot -29.4652 -5.11264
rtoes -5.98547
lfemur -5.21735 6.08645 2.82174
ltibia 74.6114
lfoot -19.5474 -8.36206
ltoes -9.13219
285
root 4.52086 16.1401 11.0203 -10.3721 5.83929 -10.0436
lowerback 6.09388 -1.79748 3.7672
upperback 5.00111 -2.27729 5.84303
thorax 1.86062 -1.13417 4.04119
lowerneck -17.5442 -3.4008 -7.07476
upperneck 15.2873 -4.23455 7.42664
head 7.92482 -1.70542 3.12885
rclavicle 1.98785e-014 2.62396e-014
rhumerus -28.4161 10.2743 -91.4191
rradius 41.091
rwrist 30.2685
rhand -33.4264 -17.0601
rfingers 7.12502
rthumb -6.62588 -46.9365
lclavicle 1.98785e-014 2.62396e-014
lhumerus -34.8774 -24.1593 101.461
lradius 24.4108
lwrist -10.8405
lhand -39.9476 9.16798
lfingers 7.12502
lthumb -12.9172 38.7482
rfemur -2.68241 -18.2896 29.4398
rtibia 43.2665
rfoot -29.1822 -4.92828
rtoes -6.65747
lfemur -6.54615 6.37276 2.45776
ltibia 74.017
lfoot -20.2189 -8.1326
ltoes -9.0857
286
root 4.51293 16.197 11.1653 -10.505 5.75368 -9.81579
lowerback 6.26979 -1.42032 3.66939
upperback 4.99744 -1.76027 5.49958
thorax 1.72488 -0.870965 3.71683
lowerneck -17.5364 -3.74461 -7.22487
upperneck 15.6783 -4.78901 7.92131
head 8.11482 -1.92648 3.2556
rclavicle 4.04527e-014 -1.15295e-014
rhumerus -27.6857 10.8472 -91.8669
rradius 40.9089
rwrist 29.8476
rhand -33.3448 -17.0595
rfingers 7.12502
rthumb -6.54712 -46.9383
lclavicle 4.04527e-014 -1.15295e-014
lhumerus -35.1237 -23.1848 100.95
lradius 23.8054
lwrist -11.3682
lhand -39.7471 9.02688
lfingers 7.12502
lthumb -12.724 38.6192
rfemur -1.24163 -18.1938 28.9981
rtibia 41.8679
rfoot -28.7712 -4.52281
rtoes -6.86553
lfemur -7.74011 6.49665 1.89017
ltibia 73.1444
lfoot -20.847 -7.9064
ltoes -8.35419
287
root 4.50608 16.2524 11.3043 -10.6705 5.6486 -9.57249
lowerback 6.56721 -0.992349 3.65883
upperback 4.93105 -1.15979 5.13006
thorax 1.45685 -0.564202 3.31255
lowerneck -17.412 -4.14922 -7.63833
upperneck 15.9733 -5.43868 8.77781
head 8.28412 -2.17477 3.53669
rclavicle 2.48481e-015 8.34896e-015
rhumerus -27.1342 10.9537 -92.1134
rradius 40.594
rwrist 30.6112
rhand -33.607 -16.8784
rfingers 7.12502
rthumb -6.80018 -46.7492
lclavicle 2.48481e-015 8.34896e-015
lhumerus -35.9375 -23.2823 100.952
lradius 23.7739
lwrist -10.8349
lhand -39.3468 9.38889
lfingers 7.12502
lthumb -12.338 39.0048
rfemur 0.257516 -18.0668 28.5605
rtibia 40.3935
rfoot -28.2607 -4.33287
rtoes -7.48161
lfemur -8.84914 6.68276 1.34851
ltibia 72.0293
lfoot -21.718 -7.68575
ltoes -9.21247
288
root 4.50586 16.3071 11.4431 -10.8595 5.65275 -9.34288
lowerback 6.78666 -0.616552 3.77586
upperback 4.94395 -0.635071 4.73182
thorax 1.32416 -0.291715 2.80573
lowerneck -17.3712 -4.5377 -7.84442
upperneck 16.2446 -6.04513 9.26959
head 8.44682 -2.42299 3.6632
rclavicle -9.34288e-015 -5.32743e-014
rhumerus -26.543 12.1119 -92.5168
rradius 40.5457
rwrist 29.6535
rhand -33.3065 -17.1119
rfingers 7.12502
rthumb -6.51013 -46.9918
lclavicle -9.34288e-015 -5.32743e-014
lhumerus -36.5449 -23.8576 101.064
lradius 23.7194
lwrist -9.45984
lhand -38.7275 9.48809
lfingers 7.12502
lthumb -11.7409 39.139
rfemur 1.76825 -18.1 28.0938
rtibia 38.8907
rfoot -27.6642 -4.1695
rtoes -7.72766
lfemur -9.89637 6.6904 0.734435
ltibia 70.7046
lfoot -22.4295 -7.50748
ltoes -10.1274
289
root 4.50403 16.3692 11.5824 -10.8805 5.61911 -9.08228
lowerback 6.82939 -0.241077 3.78936
upperback 4.91323 -0.127505 4.35304
thorax 1.2547 -0.0312175 2.37539
lowerneck -17.2378 -4.92568 -8.18915
upperneck 16.444 -6.66317 9.96739
head 8.58826 -2.66725 3.88173
rclavicle 2.11084e-014 -3.12092e-014
rhumerus -25.9571 12.4639 -92.674
rradius 40.2623
rwrist 30.3029
rhand -33.4248 -16.6755
rfingers 7.12502
rthumb -6.62432 -46.5519
lclavicle 2.11084e-014 -3.12092e-014
lhumerus -36.9803 -23.7016 100.847
lradius 23.5334
lwrist -8.751
lhand -38.6171 9.384
lfingers 7.12502
lthumb -11.6344 39.041
rfemur 3.12262 -17.9211 27.7197
rtibia 37.3015
rfoot -27.0583 -3.98658
rtoes -7.68636
lfemur -10.9757 6.7751 0.0431686
ltibia 69.1598
lfoot -23.0652 -7.20456
ltoes -9.97044
290
root 4.50049 16.4449 11.7272 -10.7772 5.47607 -8.49476
lowerback 6.56509 0.218632 3.40623
upperback 5.01441 0.444654 3.95741
thorax 1.49538 0.254592 2.14909
lowerneck -17.3017 -5.3694 -8.60808
upperneck 16.6142 -7.3014 10.5421
head 8.76286 -2.93191 4.06417
rclavicle 1.10201e-014 1.39149e-014
rhumerus -25.1409 12.5991 -92.6839
rradius 40.0586
rwrist 30.5506
rhand -33.4427 -16.8211
rfingers 7.12502
rthumb -6.64158 -46.6969
lclavicle 1.10201e-014 1.39149e-014
lhumerus -37.2046 -23.6356 100.54
lradius 23.3818
lwrist -8.64281
lhand -37.6569 9.1174
lfingers 7.12502
lthumb -10.7083 38.8245
rfemur 4.38333 -17.5202 26.9986
rtibia 35.6797
rfoot -26.0548 -3.65972
rtoes -8.60438
lfemur -11.958 6.76327 -0.994776
ltibia 67.4065
lfoot -23.5517 -7.1568
ltoes -10.147
291
root 4.50274 16.5154 11.8716 -10.7716 5.38443 -8.20048
lowerback 6.59019 0.660735 3.68375
upperback 4.92647 1.05529 3.43038
thorax 1.39676 0.574706 1.41531
lowerneck -17.0093 -5.80016 -8.88551
upperneck 16.8469 -8.02264 11.2386
head 8.91179 -3.22354 4.25859
rclavicle 3.42127e-015 8.52289e-015
rhumerus -24.64 12.1185 -92.92
rradius 39.7296
rwrist 30.6043
rhand -33.438 -16.3253
rfingers 7.12502
rthumb -6.63706 -46.2013
lclavicle 3.42127e-015 8.52289e-015
lhumerus -37.7412 -23.728 100.236
lradius 23.1912
lwrist -8.40112
lhand -37.6016 9.39478
lfingers 7.12502
lthumb -10.655 39.1046
rfemur 5.7984 -17.2179 26.6369
rtibia 33.9543
rfoot -25.3449 -3.56736
rtoes -7.9394
lfemur -12.8439 6.46269 -1.66555
ltibia 65.4824
lfoot -23.9763 -7.45601
ltoes -9.65636
292
root 4.50442 16.5821 12.0184 -10.6506 5.17165 -7.72154
lowerback 6.31279 1.06487 3.46672
upperback 4.96491 1.56715 2.99543
thorax 1.59609 0.834472 1.06806
lowerneck -16.9042 -6.14314 -9.07035
upperneck 16.9647 -8.57774 11.7149
head 9.02895 -3.44885 4.37948
rclavicle -1.79776e-014 2.98177e-015
rhumerus -23.9219 12.4701 -93.1235
rradius 39.3048
rwrist 31.1184
rhand -33.0054 -15.9966
rfingers 7.12502
rthumb -6.21939 -45.8853
lclavicle -1.79776e-014 2.98177e-015
lhumerus -38.2392 -23.9678 100.054
lradius 23.283
lwrist -7.53234
lhand -36.8587 9.2983
lfingers 7.12502
lthumb -9.93836 39.0437
rfemur 7.08851 -16.9316 26.0787
rtibia 32.2158
rfoot -24.4503 -3.56415
rtoes -9.09921
lfemur -13.6942 6.58932 -2.54283
ltibia 63.405
lfoot -24.2566 -7.42199
ltoes -9.68351
293
root 4.51026 16.655 12.1601 -10.546 5.07852 -7.55029
lowerback 6.4418 1.383 3.74779
upperback 4.74497 2.02195 2.52448
thorax 1.32691 1.07145 0.396653
lowerneck -16.5967 -6.41278 -9.25745
upperneck 17.2132 -9.10022 12.3609
head 9.16418 -3.64659 4.57082
rclavicle -1.69837e-014 -2.50469e-014
rhumerus -23.5155 12.6303 -93.4281
rradius 38.8676
rwrist 31.0218
rhand -32.8555 -15.8178
rfingers 7.12502
rthumb -6.07473 -45.7107
lclavicle -1.69837e-014 -2.50469e-014
lhumerus -38.6063 -23.0231 99.1047
lradius 22.9033
lwrist -8.42874
lhand -36.6077 8.70331
lfingers 7.12502
lthumb -9.69614 38.4601
rfemur 8.35172 -16.7271 25.8532
rtibia 30.3484
rfoot -23.2112 -3.51052
rtoes -10.4129
lfemur -14.5261 6.38036 -3.05778
ltibia 61.1883
lfoot -24.4799 -7.81571
ltoes -9.02894
294
root 4.52055 16.7212 12.3032 -10.4789 4.84239 -7.09039
lowerback 6.74211 1.76663 3.87857
upperback 4.45431 2.56692 1.93253
thorax 0.904126 1.34631 -0.329622
lowerneck -16.1256 -6.67158 -9.23726
upperneck 17.4519 -9.62116 12.7602
head 9.246 -3.86073 4.64383
rclavicle -2.04003e-014 -7.95139e-015
rhumerus -23.3009 12.6783 -93.8394
rradius 38.5317
rwrist 30.8997
rhand -32.5831 -15.6504
rfingers 7.12502
rthumb -5.81169 -45.5507
lclavicle -2.04003e-014 -7.95139e-015
lhumerus -39.8652 -23.7978 99.161
lradius 23.3073
lwrist -7.32427
lhand -36.6693 9.21795
lfingers 7.12502
lthumb -9.75557 38.972
rfemur 9.67829 -16.5452 25.2007
rtibia 28.5569
rfoot -22.2895 -3.17639
rtoes -10.4604
lfemur -15.121 6.19644 -3.87394
ltibia 58.8943
lfoot -24.9426 -7.984
ltoes -9.5849
295
root 4.52967 16.7764 12.4517 -10.5663 4.84608 -7.06665
lowerback 7.03081 1.99872 4.41453
upperback 4.21339 2.92865 1.47811
thorax 0.561099 1.53442 -1.13224
lowerneck -15.6291 -6.99547 -9.67555
upperneck 17.7457 -10.2089 13.501
head 9.39926 -4.10354 4.90776
rclavicle -4.29872e-015 9.14409e-015
rhumerus -23.1229 13.0931 -94.2244
rradius 38.2248
rwrist 30.7518
rhand -32.3001 -15.7526
rfingers 7.12502
rthumb -5.53844 -45.6602
lclavicle -4.29872e-015 9.14409e-015
lhumerus -40.3617 -22.6752 98.1846
lradius 23.0151
lwrist -8.38251
lhand -36.5701 8.77577
lfingers 7.12502
lthumb -9.65985 38.5343
rfemur 11.2016 -16.5308 24.995
rtibia 26.7079
rfoot -21.4088 -3.03858
rtoes -10.2348
lfemur -15.6511 5.92491 -4.19898
ltibia 56.5561
lfoot -25.1831 -8.22762
ltoes -10.2371
296
root 4.53446 16.8258 12.5964 -10.4323 4.41004 -6.6284
lowerback 7.26187 2.43752 4.40984
upperback 3.89911 3.53178 0.967685
thorax 0.172156 1.82915 -1.71001
lowerneck -15.1477 -7.26394 -9.72373
upperneck 17.9685 -10.7188 13.8366
head 9.47918 -4.32515 4.97269
rclavicle -5.26904e-014 -7.15625e-015
rhumerus -22.8634 13.2408 -94.5149
rradius 37.6329
rwrist 30.9453
rhand -32.257 -15.3216
rfingers 7.12502
rthumb -5.49689 -45.2303
lclavicle -5.26904e-014 -7.15625e-015
lhumerus -41.4335 -22.934 97.985
lradius 23.1432
lwrist -8.37587
lhand -36.5272 8.98659
lfingers 7.12502
lthumb -9.61847 38.747
rfemur 12.505 -15.994 24.4999
rtibia 24.8704
rfoot -20.5111 -2.74561
rtoes -10.4296
lfemur -16.2106 5.69162 -4.83489
ltibia 54.2493
lfoot -25.4804 -8.50523
ltoes -10.1032
297
root 4.54822 16.8612 12.7416 -10.4084 4.16835 -6.34122
lowerback 7.46092 2.73011 4.65265
upperback 3.74183 3.94737 0.468043
thorax -0.0209015 2.03881 -2.39983
lowerneck -15.0498 -7.44405 -9.81951
upperneck 18.3791 -11.1154 14.279
head 9.6939 -4.46546 5.09798
rclavicle -1.25856e-013 -8.74653e-015
rhumerus -22.3743 13.9829 -94.8408
rradius 37.265
rwrist 30.4627
rhand -32.0329 -15.6299
rfingers 7.12502
rthumb -5.28051 -45.5441
lclavicle -1.25856e-013 -8.74653e-015
lhumerus -42.2592 -23.0298 97.5799
lradius 23.5602
lwrist -7.70943
lhand -36.5326 8.99599
lfingers 7.12502
lthumb -9.62374 38.7562
rfemur 14.0003 -15.9237 23.9653
rtibia 22.9367
rfoot -19.7277 -2.37555
rtoes -10.5713
lfemur -16.7042 5.68419 -5.33669
ltibia 51.9682
lfoot -25.8502 -8.92624
ltoes -10.1246
